<mxfile host="app.diagrams.net" modified="2023-05-10T08:27:23.822Z" agent="Mozilla/5.0 (Macintosh; Intel Mac OS X 10_15_7) AppleWebKit/537.36 (KHTML, like Gecko) Chrome/112.0.0.0 Safari/537.36" etag="hrlkt3qf_Z2nsirf-R2S" version="21.1.4" type="google">
  <diagram id="pDNfUvziqEPPn2UhjYv8" name="Page-1">
    <mxGraphModel grid="0" page="1" gridSize="10" guides="1" tooltips="1" connect="1" arrows="1" fold="1" pageScale="1" pageWidth="1654" pageHeight="1169" math="0" shadow="0">
      <root>
        <mxCell id="0" />
        <mxCell id="1" parent="0" />
        <mxCell id="CamEUqY5Uji6_HQAbEZx-2" value="siard:Table" style="swimlane;fontStyle=0;childLayout=stackLayout;horizontal=1;startSize=30;horizontalStack=0;resizeParent=1;resizeParentMax=0;resizeLast=0;collapsible=1;marginBottom=0;" vertex="1" parent="1">
          <mxGeometry x="-1004" y="725" width="140" height="120" as="geometry">
            <mxRectangle x="570" y="120" width="100" height="30" as="alternateBounds" />
          </mxGeometry>
        </mxCell>
        <mxCell id="CamEUqY5Uji6_HQAbEZx-3" value="siard:name" style="text;strokeColor=none;fillColor=none;align=left;verticalAlign=middle;spacingLeft=4;spacingRight=4;overflow=hidden;points=[[0,0.5],[1,0.5]];portConstraint=eastwest;rotatable=0;" vertex="1" parent="CamEUqY5Uji6_HQAbEZx-2">
          <mxGeometry y="30" width="140" height="30" as="geometry" />
        </mxCell>
        <mxCell id="CamEUqY5Uji6_HQAbEZx-4" value="siard:folder" style="text;strokeColor=none;fillColor=none;align=left;verticalAlign=middle;spacingLeft=4;spacingRight=4;overflow=hidden;points=[[0,0.5],[1,0.5]];portConstraint=eastwest;rotatable=0;" vertex="1" parent="CamEUqY5Uji6_HQAbEZx-2">
          <mxGeometry y="60" width="140" height="30" as="geometry" />
        </mxCell>
        <mxCell id="CamEUqY5Uji6_HQAbEZx-13" value="(metadata.xml)" style="text;strokeColor=none;fillColor=none;align=left;verticalAlign=middle;spacingLeft=4;spacingRight=4;overflow=hidden;points=[[0,0.5],[1,0.5]];portConstraint=eastwest;rotatable=0;" vertex="1" parent="CamEUqY5Uji6_HQAbEZx-2">
          <mxGeometry y="90" width="140" height="30" as="geometry" />
        </mxCell>
        <mxCell id="CamEUqY5Uji6_HQAbEZx-6" value="siard:Column" style="swimlane;fontStyle=0;childLayout=stackLayout;horizontal=1;startSize=30;horizontalStack=0;resizeParent=1;resizeParentMax=0;resizeLast=0;collapsible=1;marginBottom=0;" vertex="1" parent="1">
          <mxGeometry x="-1004" y="925" width="140" height="120" as="geometry" />
        </mxCell>
        <mxCell id="CamEUqY5Uji6_HQAbEZx-7" value="siard:name" style="text;strokeColor=none;fillColor=none;align=left;verticalAlign=middle;spacingLeft=4;spacingRight=4;overflow=hidden;points=[[0,0.5],[1,0.5]];portConstraint=eastwest;rotatable=0;" vertex="1" parent="CamEUqY5Uji6_HQAbEZx-6">
          <mxGeometry y="30" width="140" height="30" as="geometry" />
        </mxCell>
        <mxCell id="CamEUqY5Uji6_HQAbEZx-8" value="siard:folder" style="text;strokeColor=none;fillColor=none;align=left;verticalAlign=middle;spacingLeft=4;spacingRight=4;overflow=hidden;points=[[0,0.5],[1,0.5]];portConstraint=eastwest;rotatable=0;" vertex="1" parent="CamEUqY5Uji6_HQAbEZx-6">
          <mxGeometry y="60" width="140" height="30" as="geometry" />
        </mxCell>
        <mxCell id="CamEUqY5Uji6_HQAbEZx-16" value="(metadata.xml)" style="text;strokeColor=none;fillColor=none;align=left;verticalAlign=middle;spacingLeft=4;spacingRight=4;overflow=hidden;points=[[0,0.5],[1,0.5]];portConstraint=eastwest;rotatable=0;" vertex="1" parent="CamEUqY5Uji6_HQAbEZx-6">
          <mxGeometry y="90" width="140" height="30" as="geometry" />
        </mxCell>
        <mxCell id="CamEUqY5Uji6_HQAbEZx-14" value="" style="endArrow=classic;html=1;rounded=0;entryX=0.5;entryY=0;entryDx=0;entryDy=0;" edge="1" parent="1" source="CamEUqY5Uji6_HQAbEZx-13" target="CamEUqY5Uji6_HQAbEZx-6">
          <mxGeometry width="50" height="50" relative="1" as="geometry">
            <mxPoint x="-984" y="885" as="sourcePoint" />
            <mxPoint x="-934" y="835" as="targetPoint" />
          </mxGeometry>
        </mxCell>
        <mxCell id="CamEUqY5Uji6_HQAbEZx-15" value="siard:hasColumn" style="edgeLabel;html=1;align=center;verticalAlign=middle;resizable=0;points=[];" connectable="0" vertex="1" parent="CamEUqY5Uji6_HQAbEZx-14">
          <mxGeometry x="-0.1583" y="-2" relative="1" as="geometry">
            <mxPoint as="offset" />
          </mxGeometry>
        </mxCell>
        <mxCell id="CamEUqY5Uji6_HQAbEZx-31" style="edgeStyle=orthogonalEdgeStyle;rounded=0;orthogonalLoop=1;jettySize=auto;html=1;exitX=0.521;exitY=1;exitDx=0;exitDy=0;exitPerimeter=0;" edge="1" parent="1" source="CamEUqY5Uji6_HQAbEZx-20" target="CamEUqY5Uji6_HQAbEZx-2">
          <mxGeometry relative="1" as="geometry">
            <mxPoint x="-944" y="664.0100000000002" as="sourcePoint" />
            <Array as="points">
              <mxPoint x="-944" y="501" />
              <mxPoint x="-944" y="701" />
              <mxPoint x="-950" y="701" />
            </Array>
          </mxGeometry>
        </mxCell>
        <mxCell id="YsW-Gg2cAY12iCXvxXYS-1" value="siard:hasTable" style="edgeLabel;html=1;align=center;verticalAlign=middle;resizable=0;points=[];" connectable="0" vertex="1" parent="CamEUqY5Uji6_HQAbEZx-31">
          <mxGeometry x="-0.1455" y="-2" relative="1" as="geometry">
            <mxPoint x="2" y="-49" as="offset" />
          </mxGeometry>
        </mxCell>
        <mxCell id="CamEUqY5Uji6_HQAbEZx-17" value="siard:Schema" style="swimlane;fontStyle=0;childLayout=stackLayout;horizontal=1;startSize=30;horizontalStack=0;resizeParent=1;resizeParentMax=0;resizeLast=0;collapsible=1;marginBottom=0;" vertex="1" parent="1">
          <mxGeometry x="-1014" y="381" width="140" height="120" as="geometry" />
        </mxCell>
        <mxCell id="CamEUqY5Uji6_HQAbEZx-18" value="siard:name" style="text;strokeColor=none;fillColor=none;align=left;verticalAlign=middle;spacingLeft=4;spacingRight=4;overflow=hidden;points=[[0,0.5],[1,0.5]];portConstraint=eastwest;rotatable=0;" vertex="1" parent="CamEUqY5Uji6_HQAbEZx-17">
          <mxGeometry y="30" width="140" height="30" as="geometry" />
        </mxCell>
        <mxCell id="CamEUqY5Uji6_HQAbEZx-19" value="siard:folder" style="text;strokeColor=none;fillColor=none;align=left;verticalAlign=middle;spacingLeft=4;spacingRight=4;overflow=hidden;points=[[0,0.5],[1,0.5]];portConstraint=eastwest;rotatable=0;" vertex="1" parent="CamEUqY5Uji6_HQAbEZx-17">
          <mxGeometry y="60" width="140" height="30" as="geometry" />
        </mxCell>
        <mxCell id="CamEUqY5Uji6_HQAbEZx-20" value="(metadata.xml)" style="text;strokeColor=none;fillColor=none;align=left;verticalAlign=middle;spacingLeft=4;spacingRight=4;overflow=hidden;points=[[0,0.5],[1,0.5]];portConstraint=eastwest;rotatable=0;" vertex="1" parent="CamEUqY5Uji6_HQAbEZx-17">
          <mxGeometry y="90" width="140" height="30" as="geometry" />
        </mxCell>
        <mxCell id="CamEUqY5Uji6_HQAbEZx-30" value="siard:hasCell" style="edgeStyle=orthogonalEdgeStyle;rounded=0;orthogonalLoop=1;jettySize=auto;html=1;exitX=0.5;exitY=1;exitDx=0;exitDy=0;entryX=0.5;entryY=0;entryDx=0;entryDy=0;" edge="1" parent="1" source="CamEUqY5Uji6_HQAbEZx-21" target="CamEUqY5Uji6_HQAbEZx-25">
          <mxGeometry relative="1" as="geometry" />
        </mxCell>
        <mxCell id="CamEUqY5Uji6_HQAbEZx-21" value="siard:Row" style="swimlane;fontStyle=0;childLayout=stackLayout;horizontal=1;startSize=30;horizontalStack=0;resizeParent=1;resizeParentMax=0;resizeLast=0;collapsible=1;marginBottom=0;" vertex="1" parent="1">
          <mxGeometry x="-695" y="759" width="140" height="60" as="geometry" />
        </mxCell>
        <mxCell id="CamEUqY5Uji6_HQAbEZx-24" value="(table.xml)" style="text;strokeColor=none;fillColor=none;align=left;verticalAlign=middle;spacingLeft=4;spacingRight=4;overflow=hidden;points=[[0,0.5],[1,0.5]];portConstraint=eastwest;rotatable=0;" vertex="1" parent="CamEUqY5Uji6_HQAbEZx-21">
          <mxGeometry y="30" width="140" height="30" as="geometry" />
        </mxCell>
        <mxCell id="CamEUqY5Uji6_HQAbEZx-25" value="siard:Cell" style="swimlane;fontStyle=0;childLayout=stackLayout;horizontal=1;startSize=30;horizontalStack=0;resizeParent=1;resizeParentMax=0;resizeLast=0;collapsible=1;marginBottom=0;" vertex="1" parent="1">
          <mxGeometry x="-695" y="929" width="140" height="90" as="geometry" />
        </mxCell>
        <mxCell id="CamEUqY5Uji6_HQAbEZx-26" value="siard:value" style="text;strokeColor=none;fillColor=none;align=left;verticalAlign=middle;spacingLeft=4;spacingRight=4;overflow=hidden;points=[[0,0.5],[1,0.5]];portConstraint=eastwest;rotatable=0;" vertex="1" parent="CamEUqY5Uji6_HQAbEZx-25">
          <mxGeometry y="30" width="140" height="30" as="geometry" />
        </mxCell>
        <mxCell id="CamEUqY5Uji6_HQAbEZx-27" value="(table.xml)&#xa;(Value Node)" style="text;strokeColor=none;fillColor=none;align=left;verticalAlign=middle;spacingLeft=4;spacingRight=4;overflow=hidden;points=[[0,0.5],[1,0.5]];portConstraint=eastwest;rotatable=0;" vertex="1" parent="CamEUqY5Uji6_HQAbEZx-25">
          <mxGeometry y="60" width="140" height="30" as="geometry" />
        </mxCell>
        <mxCell id="CamEUqY5Uji6_HQAbEZx-29" value="siard:hasRow" style="endArrow=classic;html=1;rounded=0;exitX=0.993;exitY=0.3;exitDx=0;exitDy=0;entryX=0;entryY=0.5;entryDx=0;entryDy=0;exitPerimeter=0;" edge="1" parent="1" source="CamEUqY5Uji6_HQAbEZx-4" target="CamEUqY5Uji6_HQAbEZx-21">
          <mxGeometry width="50" height="50" relative="1" as="geometry">
            <mxPoint x="-411" y="792" as="sourcePoint" />
            <mxPoint x="-749.6000000000001" y="789.6700000000001" as="targetPoint" />
          </mxGeometry>
        </mxCell>
        <mxCell id="CamEUqY5Uji6_HQAbEZx-33" value="siard:hasColumnType" style="edgeStyle=orthogonalEdgeStyle;rounded=0;orthogonalLoop=1;jettySize=auto;html=1;entryX=1.014;entryY=0.8;entryDx=0;entryDy=0;entryPerimeter=0;exitX=0;exitY=0.5;exitDx=0;exitDy=0;" edge="1" parent="1" source="CamEUqY5Uji6_HQAbEZx-25" target="CamEUqY5Uji6_HQAbEZx-7">
          <mxGeometry relative="1" as="geometry">
            <mxPoint x="-411" y="958.3400000000001" as="targetPoint" />
          </mxGeometry>
        </mxCell>
        <mxCell id="7-JRIclt0FcUK3RJpTAU-33" style="edgeStyle=orthogonalEdgeStyle;rounded=0;orthogonalLoop=1;jettySize=auto;html=1;entryX=0.56;entryY=0.011;entryDx=0;entryDy=0;entryPerimeter=0;" edge="1" parent="1" source="7-JRIclt0FcUK3RJpTAU-5" target="7-JRIclt0FcUK3RJpTAU-26">
          <mxGeometry relative="1" as="geometry">
            <mxPoint x="-512" y="77" as="targetPoint" />
            <Array as="points">
              <mxPoint x="-682" y="90" />
              <mxPoint x="-682" y="77" />
              <mxPoint x="-423" y="77" />
            </Array>
          </mxGeometry>
        </mxCell>
        <mxCell id="7-JRIclt0FcUK3RJpTAU-49" value="siard:hasRole" style="edgeLabel;html=1;align=center;verticalAlign=middle;resizable=0;points=[];" connectable="0" vertex="1" parent="7-JRIclt0FcUK3RJpTAU-33">
          <mxGeometry x="0.2248" y="2" relative="1" as="geometry">
            <mxPoint as="offset" />
          </mxGeometry>
        </mxCell>
        <mxCell id="7-JRIclt0FcUK3RJpTAU-5" value="siard:Archive" style="swimlane;fontStyle=0;childLayout=stackLayout;horizontal=1;startSize=30;horizontalStack=0;resizeParent=1;resizeParentMax=0;resizeLast=0;collapsible=1;marginBottom=0;" vertex="1" parent="1">
          <mxGeometry x="-1012" y="47" width="159" height="150" as="geometry" />
        </mxCell>
        <mxCell id="7-JRIclt0FcUK3RJpTAU-6" value="siard:dbname" style="text;strokeColor=none;fillColor=none;align=left;verticalAlign=middle;spacingLeft=4;spacingRight=4;overflow=hidden;points=[[0,0.5],[1,0.5]];portConstraint=eastwest;rotatable=0;" vertex="1" parent="7-JRIclt0FcUK3RJpTAU-5">
          <mxGeometry y="30" width="159" height="30" as="geometry" />
        </mxCell>
        <mxCell id="7-JRIclt0FcUK3RJpTAU-7" value="siard:dataOwner" style="text;strokeColor=none;fillColor=none;align=left;verticalAlign=middle;spacingLeft=4;spacingRight=4;overflow=hidden;points=[[0,0.5],[1,0.5]];portConstraint=eastwest;rotatable=0;" vertex="1" parent="7-JRIclt0FcUK3RJpTAU-5">
          <mxGeometry y="60" width="159" height="30" as="geometry" />
        </mxCell>
        <mxCell id="7-JRIclt0FcUK3RJpTAU-8" value="siard:producerApplication" style="text;strokeColor=none;fillColor=none;align=left;verticalAlign=middle;spacingLeft=4;spacingRight=4;overflow=hidden;points=[[0,0.5],[1,0.5]];portConstraint=eastwest;rotatable=0;" vertex="1" parent="7-JRIclt0FcUK3RJpTAU-5">
          <mxGeometry y="90" width="159" height="30" as="geometry" />
        </mxCell>
        <mxCell id="7-JRIclt0FcUK3RJpTAU-11" value="(metadata.xml)" style="text;strokeColor=none;fillColor=none;align=left;verticalAlign=middle;spacingLeft=4;spacingRight=4;overflow=hidden;points=[[0,0.5],[1,0.5]];portConstraint=eastwest;rotatable=0;" vertex="1" parent="7-JRIclt0FcUK3RJpTAU-5">
          <mxGeometry y="120" width="159" height="30" as="geometry" />
        </mxCell>
        <mxCell id="7-JRIclt0FcUK3RJpTAU-18" value="siard:User" style="swimlane;fontStyle=0;childLayout=stackLayout;horizontal=1;startSize=30;horizontalStack=0;resizeParent=1;resizeParentMax=0;resizeLast=0;collapsible=1;marginBottom=0;" vertex="1" parent="1">
          <mxGeometry x="-746" y="245" width="159" height="90" as="geometry" />
        </mxCell>
        <mxCell id="7-JRIclt0FcUK3RJpTAU-19" value="siard:name" style="text;strokeColor=none;fillColor=none;align=left;verticalAlign=middle;spacingLeft=4;spacingRight=4;overflow=hidden;points=[[0,0.5],[1,0.5]];portConstraint=eastwest;rotatable=0;" vertex="1" parent="7-JRIclt0FcUK3RJpTAU-18">
          <mxGeometry y="30" width="159" height="30" as="geometry" />
        </mxCell>
        <mxCell id="7-JRIclt0FcUK3RJpTAU-23" value="(metadata.xml)" style="text;strokeColor=none;fillColor=none;align=left;verticalAlign=middle;spacingLeft=4;spacingRight=4;overflow=hidden;points=[[0,0.5],[1,0.5]];portConstraint=eastwest;rotatable=0;" vertex="1" parent="7-JRIclt0FcUK3RJpTAU-18">
          <mxGeometry y="60" width="159" height="30" as="geometry" />
        </mxCell>
        <mxCell id="7-JRIclt0FcUK3RJpTAU-26" value="siard:Role" style="swimlane;fontStyle=0;childLayout=stackLayout;horizontal=1;startSize=30;horizontalStack=0;resizeParent=1;resizeParentMax=0;resizeLast=0;collapsible=1;marginBottom=0;" vertex="1" parent="1">
          <mxGeometry x="-512" y="149" width="159" height="90" as="geometry" />
        </mxCell>
        <mxCell id="7-JRIclt0FcUK3RJpTAU-27" value="siard:name" style="text;strokeColor=none;fillColor=none;align=left;verticalAlign=middle;spacingLeft=4;spacingRight=4;overflow=hidden;points=[[0,0.5],[1,0.5]];portConstraint=eastwest;rotatable=0;" vertex="1" parent="7-JRIclt0FcUK3RJpTAU-26">
          <mxGeometry y="30" width="159" height="30" as="geometry" />
        </mxCell>
        <mxCell id="7-JRIclt0FcUK3RJpTAU-28" value="(metadata.xml)" style="text;strokeColor=none;fillColor=none;align=left;verticalAlign=middle;spacingLeft=4;spacingRight=4;overflow=hidden;points=[[0,0.5],[1,0.5]];portConstraint=eastwest;rotatable=0;" vertex="1" parent="7-JRIclt0FcUK3RJpTAU-26">
          <mxGeometry y="60" width="159" height="30" as="geometry" />
        </mxCell>
        <mxCell id="7-JRIclt0FcUK3RJpTAU-34" style="edgeStyle=orthogonalEdgeStyle;rounded=0;orthogonalLoop=1;jettySize=auto;html=1;entryX=0.5;entryY=0;entryDx=0;entryDy=0;exitX=1;exitY=0.5;exitDx=0;exitDy=0;" edge="1" parent="1" source="7-JRIclt0FcUK3RJpTAU-6" target="7-JRIclt0FcUK3RJpTAU-18">
          <mxGeometry relative="1" as="geometry">
            <mxPoint x="-666.5" y="143" as="targetPoint" />
          </mxGeometry>
        </mxCell>
        <mxCell id="7-JRIclt0FcUK3RJpTAU-48" value="siard:hasUser" style="edgeLabel;html=1;align=center;verticalAlign=middle;resizable=0;points=[];" connectable="0" vertex="1" parent="7-JRIclt0FcUK3RJpTAU-34">
          <mxGeometry x="0.4227" y="-1" relative="1" as="geometry">
            <mxPoint as="offset" />
          </mxGeometry>
        </mxCell>
        <mxCell id="7-JRIclt0FcUK3RJpTAU-37" style="edgeStyle=orthogonalEdgeStyle;rounded=0;orthogonalLoop=1;jettySize=auto;html=1;entryX=0.5;entryY=0;entryDx=0;entryDy=0;exitX=0.434;exitY=1.067;exitDx=0;exitDy=0;exitPerimeter=0;" edge="1" parent="1" source="7-JRIclt0FcUK3RJpTAU-11" target="CamEUqY5Uji6_HQAbEZx-17">
          <mxGeometry relative="1" as="geometry">
            <mxPoint x="-944" y="227" as="targetPoint" />
            <Array as="points">
              <mxPoint x="-944" y="199" />
            </Array>
          </mxGeometry>
        </mxCell>
        <mxCell id="7-JRIclt0FcUK3RJpTAU-47" value="siard:hasSchema" style="edgeLabel;html=1;align=center;verticalAlign=middle;resizable=0;points=[];" connectable="0" vertex="1" parent="7-JRIclt0FcUK3RJpTAU-37">
          <mxGeometry x="-0.0601" y="1" relative="1" as="geometry">
            <mxPoint as="offset" />
          </mxGeometry>
        </mxCell>
        <mxCell id="7-JRIclt0FcUK3RJpTAU-57" style="edgeStyle=orthogonalEdgeStyle;rounded=0;orthogonalLoop=1;jettySize=auto;html=1;exitX=1.007;exitY=0.767;exitDx=0;exitDy=0;exitPerimeter=0;" edge="1" parent="1" source="7-JRIclt0FcUK3RJpTAU-41" target="CamEUqY5Uji6_HQAbEZx-6">
          <mxGeometry relative="1" as="geometry">
            <Array as="points">
              <mxPoint x="-1050" y="1014" />
              <mxPoint x="-1050" y="868" />
              <mxPoint x="-934" y="868" />
            </Array>
          </mxGeometry>
        </mxCell>
        <mxCell id="7-JRIclt0FcUK3RJpTAU-40" value="siard:PrimaryKey" style="swimlane;fontStyle=0;childLayout=stackLayout;horizontal=1;startSize=30;horizontalStack=0;resizeParent=1;resizeParentMax=0;resizeLast=0;collapsible=1;marginBottom=0;" vertex="1" parent="1">
          <mxGeometry x="-1322" y="961" width="140" height="90" as="geometry">
            <mxRectangle x="570" y="120" width="100" height="30" as="alternateBounds" />
          </mxGeometry>
        </mxCell>
        <mxCell id="7-JRIclt0FcUK3RJpTAU-41" value="siard:name" style="text;strokeColor=none;fillColor=none;align=left;verticalAlign=middle;spacingLeft=4;spacingRight=4;overflow=hidden;points=[[0,0.5],[1,0.5]];portConstraint=eastwest;rotatable=0;" vertex="1" parent="7-JRIclt0FcUK3RJpTAU-40">
          <mxGeometry y="30" width="140" height="30" as="geometry" />
        </mxCell>
        <mxCell id="7-JRIclt0FcUK3RJpTAU-43" value="(metadata.xml)" style="text;strokeColor=none;fillColor=none;align=left;verticalAlign=middle;spacingLeft=4;spacingRight=4;overflow=hidden;points=[[0,0.5],[1,0.5]];portConstraint=eastwest;rotatable=0;" vertex="1" parent="7-JRIclt0FcUK3RJpTAU-40">
          <mxGeometry y="60" width="140" height="30" as="geometry" />
        </mxCell>
        <mxCell id="7-JRIclt0FcUK3RJpTAU-59" value="siard:referencedSchema" style="edgeStyle=orthogonalEdgeStyle;rounded=0;orthogonalLoop=1;jettySize=auto;html=1;entryX=0;entryY=-0.1;entryDx=0;entryDy=0;entryPerimeter=0;" edge="1" parent="1" source="7-JRIclt0FcUK3RJpTAU-44" target="CamEUqY5Uji6_HQAbEZx-19">
          <mxGeometry relative="1" as="geometry" />
        </mxCell>
        <mxCell id="7-JRIclt0FcUK3RJpTAU-60" style="edgeStyle=orthogonalEdgeStyle;rounded=0;orthogonalLoop=1;jettySize=auto;html=1;exitX=1;exitY=0.5;exitDx=0;exitDy=0;" edge="1" parent="1" source="7-JRIclt0FcUK3RJpTAU-45">
          <mxGeometry relative="1" as="geometry">
            <Array as="points">
              <mxPoint x="-1130" y="468" />
              <mxPoint x="-1130" y="647" />
              <mxPoint x="-983" y="647" />
            </Array>
            <mxPoint x="-983" y="724" as="targetPoint" />
          </mxGeometry>
        </mxCell>
        <mxCell id="7-JRIclt0FcUK3RJpTAU-61" value="siard:referencedTable" style="edgeLabel;html=1;align=center;verticalAlign=middle;resizable=0;points=[];" connectable="0" vertex="1" parent="7-JRIclt0FcUK3RJpTAU-60">
          <mxGeometry x="-0.1381" y="1" relative="1" as="geometry">
            <mxPoint x="35" y="1" as="offset" />
          </mxGeometry>
        </mxCell>
        <mxCell id="7-JRIclt0FcUK3RJpTAU-44" value="siard:ForeignKey" style="swimlane;fontStyle=0;childLayout=stackLayout;horizontal=1;startSize=30;horizontalStack=0;resizeParent=1;resizeParentMax=0;resizeLast=0;collapsible=1;marginBottom=0;" vertex="1" parent="1">
          <mxGeometry x="-1331" y="423" width="140" height="90" as="geometry">
            <mxRectangle x="570" y="120" width="100" height="30" as="alternateBounds" />
          </mxGeometry>
        </mxCell>
        <mxCell id="7-JRIclt0FcUK3RJpTAU-45" value="siard:name" style="text;strokeColor=none;fillColor=none;align=left;verticalAlign=middle;spacingLeft=4;spacingRight=4;overflow=hidden;points=[[0,0.5],[1,0.5]];portConstraint=eastwest;rotatable=0;" vertex="1" parent="7-JRIclt0FcUK3RJpTAU-44">
          <mxGeometry y="30" width="140" height="30" as="geometry" />
        </mxCell>
        <mxCell id="7-JRIclt0FcUK3RJpTAU-46" value="(metadata.xml)" style="text;strokeColor=none;fillColor=none;align=left;verticalAlign=middle;spacingLeft=4;spacingRight=4;overflow=hidden;points=[[0,0.5],[1,0.5]];portConstraint=eastwest;rotatable=0;" vertex="1" parent="7-JRIclt0FcUK3RJpTAU-44">
          <mxGeometry y="60" width="140" height="30" as="geometry" />
        </mxCell>
        <mxCell id="7-JRIclt0FcUK3RJpTAU-50" value="siard:View" style="swimlane;fontStyle=0;childLayout=stackLayout;horizontal=1;startSize=30;horizontalStack=0;resizeParent=1;resizeParentMax=0;resizeLast=0;collapsible=1;marginBottom=0;" vertex="1" parent="1">
          <mxGeometry x="-1353" y="212" width="140" height="120" as="geometry">
            <mxRectangle x="570" y="120" width="100" height="30" as="alternateBounds" />
          </mxGeometry>
        </mxCell>
        <mxCell id="7-JRIclt0FcUK3RJpTAU-51" value="siard:name" style="text;strokeColor=none;fillColor=none;align=left;verticalAlign=middle;spacingLeft=4;spacingRight=4;overflow=hidden;points=[[0,0.5],[1,0.5]];portConstraint=eastwest;rotatable=0;" vertex="1" parent="7-JRIclt0FcUK3RJpTAU-50">
          <mxGeometry y="30" width="140" height="30" as="geometry" />
        </mxCell>
        <mxCell id="7-JRIclt0FcUK3RJpTAU-52" value="siard:folder" style="text;strokeColor=none;fillColor=none;align=left;verticalAlign=middle;spacingLeft=4;spacingRight=4;overflow=hidden;points=[[0,0.5],[1,0.5]];portConstraint=eastwest;rotatable=0;" vertex="1" parent="7-JRIclt0FcUK3RJpTAU-50">
          <mxGeometry y="60" width="140" height="30" as="geometry" />
        </mxCell>
        <mxCell id="7-JRIclt0FcUK3RJpTAU-53" value="(metadata.xml)" style="text;strokeColor=none;fillColor=none;align=left;verticalAlign=middle;spacingLeft=4;spacingRight=4;overflow=hidden;points=[[0,0.5],[1,0.5]];portConstraint=eastwest;rotatable=0;" vertex="1" parent="7-JRIclt0FcUK3RJpTAU-50">
          <mxGeometry y="90" width="140" height="30" as="geometry" />
        </mxCell>
        <mxCell id="7-JRIclt0FcUK3RJpTAU-54" value="siard:hasForeignKey" style="edgeStyle=orthogonalEdgeStyle;rounded=0;orthogonalLoop=1;jettySize=auto;html=1;" edge="1" parent="1" source="CamEUqY5Uji6_HQAbEZx-3" target="7-JRIclt0FcUK3RJpTAU-46">
          <mxGeometry x="0.3964" relative="1" as="geometry">
            <Array as="points">
              <mxPoint x="-1043" y="770" />
              <mxPoint x="-1043" y="726" />
              <mxPoint x="-1260" y="726" />
            </Array>
            <mxPoint as="offset" />
          </mxGeometry>
        </mxCell>
        <mxCell id="7-JRIclt0FcUK3RJpTAU-55" style="edgeStyle=orthogonalEdgeStyle;rounded=0;orthogonalLoop=1;jettySize=auto;html=1;entryX=0.75;entryY=0;entryDx=0;entryDy=0;exitX=-0.014;exitY=0.2;exitDx=0;exitDy=0;exitPerimeter=0;" edge="1" parent="1" source="CamEUqY5Uji6_HQAbEZx-13" target="7-JRIclt0FcUK3RJpTAU-40">
          <mxGeometry relative="1" as="geometry">
            <Array as="points">
              <mxPoint x="-1216" y="821" />
            </Array>
          </mxGeometry>
        </mxCell>
        <mxCell id="7-JRIclt0FcUK3RJpTAU-56" value="siard:hasPrimaryKey" style="edgeLabel;html=1;align=center;verticalAlign=middle;resizable=0;points=[];" connectable="0" vertex="1" parent="7-JRIclt0FcUK3RJpTAU-55">
          <mxGeometry x="0.2061" y="-2" relative="1" as="geometry">
            <mxPoint as="offset" />
          </mxGeometry>
        </mxCell>
        <mxCell id="7-JRIclt0FcUK3RJpTAU-62" style="edgeStyle=orthogonalEdgeStyle;rounded=0;orthogonalLoop=1;jettySize=auto;html=1;entryX=0;entryY=0.25;entryDx=0;entryDy=0;" edge="1" parent="1" source="7-JRIclt0FcUK3RJpTAU-45" target="CamEUqY5Uji6_HQAbEZx-6">
          <mxGeometry relative="1" as="geometry">
            <Array as="points">
              <mxPoint x="-1191" y="485" />
              <mxPoint x="-1155" y="485" />
              <mxPoint x="-1155" y="955" />
            </Array>
          </mxGeometry>
        </mxCell>
        <mxCell id="7-JRIclt0FcUK3RJpTAU-63" value="siard:referencedColumn" style="edgeLabel;html=1;align=center;verticalAlign=middle;resizable=0;points=[];" connectable="0" vertex="1" parent="7-JRIclt0FcUK3RJpTAU-62">
          <mxGeometry x="0.5693" y="2" relative="1" as="geometry">
            <mxPoint x="55" y="2" as="offset" />
          </mxGeometry>
        </mxCell>
        <mxCell id="Pz6BGPRtr8Hm9AnyW2Z9-5" value="siard:hasReferencedRow" style="edgeStyle=orthogonalEdgeStyle;rounded=0;orthogonalLoop=1;jettySize=auto;html=1;entryX=1.001;entryY=-0.09;entryDx=0;entryDy=0;entryPerimeter=0;" edge="1" parent="1" source="Pz6BGPRtr8Hm9AnyW2Z9-2" target="CamEUqY5Uji6_HQAbEZx-24">
          <mxGeometry relative="1" as="geometry" />
        </mxCell>
        <mxCell id="Pz6BGPRtr8Hm9AnyW2Z9-2" value="siard:Reference" style="swimlane;fontStyle=0;childLayout=stackLayout;horizontal=1;startSize=30;horizontalStack=0;resizeParent=1;resizeParentMax=0;resizeLast=0;collapsible=1;marginBottom=0;" vertex="1" parent="1">
          <mxGeometry x="-338" y="880" width="140" height="60" as="geometry" />
        </mxCell>
        <mxCell id="Pz6BGPRtr8Hm9AnyW2Z9-7" value="siard:isOfKey" style="edgeStyle=orthogonalEdgeStyle;rounded=0;orthogonalLoop=1;jettySize=auto;html=1;entryX=0;entryY=0.25;entryDx=0;entryDy=0;" edge="1" parent="1" target="7-JRIclt0FcUK3RJpTAU-44">
          <mxGeometry relative="1" as="geometry">
            <Array as="points">
              <mxPoint x="-267" y="1106" />
              <mxPoint x="-1450" y="1106" />
              <mxPoint x="-1450" y="446" />
            </Array>
            <mxPoint x="-267" y="940" as="sourcePoint" />
          </mxGeometry>
        </mxCell>
        <mxCell id="RkPC1zbnfHwi-l5GhnzR-1" style="edgeStyle=orthogonalEdgeStyle;rounded=0;orthogonalLoop=1;jettySize=auto;html=1;entryX=0.286;entryY=1.011;entryDx=0;entryDy=0;entryPerimeter=0;" edge="1" parent="1" source="CamEUqY5Uji6_HQAbEZx-26">
          <mxGeometry relative="1" as="geometry">
            <mxPoint x="-297.96000000000004" y="940.3299999999999" as="targetPoint" />
          </mxGeometry>
        </mxCell>
        <mxCell id="RkPC1zbnfHwi-l5GhnzR-2" value="siard:hasReference" style="edgeLabel;html=1;align=center;verticalAlign=middle;resizable=0;points=[];" connectable="0" vertex="1" parent="RkPC1zbnfHwi-l5GhnzR-1">
          <mxGeometry x="-0.0138" y="1" relative="1" as="geometry">
            <mxPoint as="offset" />
          </mxGeometry>
        </mxCell>
        <mxCell id="RkPC1zbnfHwi-l5GhnzR-3" value="&lt;div style=&quot;text-align: left;&quot;&gt;&lt;span style=&quot;background-color: initial;&quot;&gt;&lt;b&gt;SIARD RDF&lt;/b&gt;&lt;/span&gt;&lt;/div&gt;&lt;div style=&quot;text-align: left;&quot;&gt;&lt;span style=&quot;background-color: initial;&quot;&gt;Tobias Wildi, tobias.wildi@fhgr.ch&lt;/span&gt;&lt;/div&gt;&lt;div style=&quot;text-align: left;&quot;&gt;&lt;span style=&quot;background-color: initial;&quot;&gt;10.5.2023&lt;/span&gt;&lt;/div&gt;" style="text;html=1;strokeColor=none;fillColor=none;align=center;verticalAlign=middle;whiteSpace=wrap;rounded=0;" vertex="1" parent="1">
          <mxGeometry x="-1616" y="65" width="195" height="44" as="geometry" />
        </mxCell>
      </root>
    </mxGraphModel>
  </diagram>
</mxfile>
